# xmcd CD database file
# Copyright (C) 1995-1998 Ti Kan
#
# Track frame offsets:
#	150
#	25149
#	45915
#	62727
#	94268
#	117371
#	145851
#	163959
#	199700
#	219325
#	251552
#	277365
#	298960
#
# Disc length: 4214 seconds
#
# Revision: 1
# Processed by: cddbd v1.4PL0 Copyright (c) Steve Scherf et al.
# Submitted via: CDex 1.30Release
#
DISCID=cc10740d
DTITLE=Abi Wallenstein and Steve Baker - In your face - live in concert
DYEAR=2000
DGENRE=Blues
TTITLE0=Shake your boogie
TTITLE1=Come back baby
TTITLE2=Grinnin' in your face
TTITLE3=Honey bee blues
TTITLE4=Palace of the king
TTITLE5=Silver City
TTITLE6=Same old blues
TTITLE7=Shake your hips
TTITLE8=True love of my life
TTITLE9=Decoration day
TTITLE10=Keep your hands off her
TTITLE11=Susy Q
TTITLE12=Long as I can see the light
EXTD=YEAR: 2000 ID3G:   0
EXTT0=
EXTT1=
EXTT2=
EXTT3=
EXTT4=
EXTT5=
EXTT6=
EXTT7=
EXTT8=
EXTT9=
EXTT10=
EXTT11=
EXTT12=
PLAYORDER=
